G04 ================== begin FILE IDENTIFICATION RECORD ==================*
G04 Layout Name:  TEO_PCB.brd*
G04 Film Name:    FAB*
G04 File Format:  Gerber RS274X*
G04 File Origin:  Cadence Allegro 17.2-S025*
G04 Origin Date:  Mon Dec 30 22:17:04 2024*
G04 *
G04 Layer:  MANUFACTURING/XSECTION_CHART*
G04 Layer:  MANUFACTURING/NCLEGEND-1-2*
G04 Layer:  BOARD GEOMETRY/DIMENSION*
G04 Layer:  BOARD GEOMETRY/DESIGN_OUTLINE*
G04 *
G04 Offset:    (0.0000 0.0000)*
G04 Mirror:    No*
G04 Mode:      Positive*
G04 Rotation:  0*
G04 FullContactRelief:  No*
G04 UndefLineWidth:     0.3000*
G04 ================== end FILE IDENTIFICATION RECORD ====================*
%FSLAX25Y25*MOIN*%
%IR0*IPPOS*OFA0.00000B0.00000*MIA0B0*SFA1.00000B1.00000*%
%AMMACRO10*
1,1,.011811,.025,0.0*
20,1,.011811,.025,0.0,.02462,-.004341,0.0*
1,1,.011811,.02462,-.004341*
20,1,.011811,.02462,-.004341,.023492,-.008551,0.0*
1,1,.011811,.023492,-.008551*
20,1,.011811,.023492,-.008551,.021651,-.0125,0.0*
1,1,.011811,.021651,-.0125*
20,1,.011811,.021651,-.0125,.019151,-.01607,0.0*
1,1,.011811,.019151,-.01607*
20,1,.011811,.019151,-.01607,.01607,-.019151,0.0*
1,1,.011811,.01607,-.019151*
20,1,.011811,.01607,-.019151,.0125,-.021651,0.0*
1,1,.011811,.0125,-.021651*
20,1,.011811,.0125,-.021651,.008551,-.023492,0.0*
1,1,.011811,.008551,-.023492*
20,1,.011811,.008551,-.023492,.004341,-.02462,0.0*
1,1,.011811,.004341,-.02462*
20,1,.011811,.004341,-.02462,0.0,-.025,0.0*
1,1,.011811,0.0,-.025*
20,1,.011811,0.0,-.025,-.004341,-.02462,0.0*
1,1,.011811,-.004341,-.02462*
20,1,.011811,-.004341,-.02462,-.008551,-.023492,0.0*
1,1,.011811,-.008551,-.023492*
20,1,.011811,-.008551,-.023492,-.0125,-.021651,0.0*
1,1,.011811,-.0125,-.021651*
20,1,.011811,-.0125,-.021651,-.01607,-.019151,0.0*
1,1,.011811,-.01607,-.019151*
20,1,.011811,-.01607,-.019151,-.019151,-.01607,0.0*
1,1,.011811,-.019151,-.01607*
20,1,.011811,-.019151,-.01607,-.021651,-.0125,0.0*
1,1,.011811,-.021651,-.0125*
20,1,.011811,-.021651,-.0125,-.023492,-.008551,0.0*
1,1,.011811,-.023492,-.008551*
20,1,.011811,-.023492,-.008551,-.02462,-.004341,0.0*
1,1,.011811,-.02462,-.004341*
20,1,.011811,-.02462,-.004341,-.025,0.0,0.0*
1,1,.011811,-.025,0.0*
20,1,.011811,-.025,0.0,-.02462,.004341,0.0*
1,1,.011811,-.02462,.004341*
20,1,.011811,-.02462,.004341,-.023492,.008551,0.0*
1,1,.011811,-.023492,.008551*
20,1,.011811,-.023492,.008551,-.021651,.0125,0.0*
1,1,.011811,-.021651,.0125*
20,1,.011811,-.021651,.0125,-.019151,.01607,0.0*
1,1,.011811,-.019151,.01607*
20,1,.011811,-.019151,.01607,-.01607,.019151,0.0*
1,1,.011811,-.01607,.019151*
20,1,.011811,-.01607,.019151,-.0125,.021651,0.0*
1,1,.011811,-.0125,.021651*
20,1,.011811,-.0125,.021651,-.008551,.023492,0.0*
1,1,.011811,-.008551,.023492*
20,1,.011811,-.008551,.023492,-.004341,.02462,0.0*
1,1,.011811,-.004341,.02462*
20,1,.011811,-.004341,.02462,0.0,.025,0.0*
1,1,.011811,0.0,.025*
20,1,.011811,0.0,.025,.004341,.02462,0.0*
1,1,.011811,.004341,.02462*
20,1,.011811,.004341,.02462,.008551,.023492,0.0*
1,1,.011811,.008551,.023492*
20,1,.011811,.008551,.023492,.0125,.021651,0.0*
1,1,.011811,.0125,.021651*
20,1,.011811,.0125,.021651,.01607,.019151,0.0*
1,1,.011811,.01607,.019151*
20,1,.011811,.01607,.019151,.019151,.01607,0.0*
1,1,.011811,.019151,.01607*
20,1,.011811,.019151,.01607,.021651,.0125,0.0*
1,1,.011811,.021651,.0125*
20,1,.011811,.021651,.0125,.023492,.008551,0.0*
1,1,.011811,.023492,.008551*
20,1,.011811,.023492,.008551,.02462,.004341,0.0*
1,1,.011811,.02462,.004341*
20,1,.011811,.02462,.004341,.025,0.0,0.0*
1,1,.011811,.025,0.0*
1,1,.011811,.0125,0.0*
20,1,.011811,.0125,0.0,-.0125,0.0,0.0*
1,1,.011811,-.0125,0.0*
1,1,.011811,0.0,.0125*
20,1,.011811,0.0,.0125,0.0,-.0125,0.0*
1,1,.011811,0.0,-.0125*
%
%ADD10MACRO10*%
%ADD11C,.004921*%
%ADD12C,.011811*%
G75*
%LPD*%
G75*
G36*
G01X-127274Y219681D02*
Y217413D01*
X-124774D01*
Y20374D01*
X-127274D01*
Y18106D01*
X-112274D01*
Y20374D01*
X-114774D01*
Y217413D01*
X-112274D01*
Y219681D01*
X-127274D01*
G37*
G36*
G01X-147274Y18107D02*
Y20374D01*
X-87274D01*
Y18107D01*
X-147274D01*
G37*
G36*
G01Y217413D02*
Y219681D01*
X-87274D01*
Y217413D01*
X-147274D01*
G37*
G54D10*
X-105444Y-107382D03*
X28740Y68898D03*
X39764Y115354D03*
X22441Y131102D03*
X75197Y114173D03*
X56299Y113386D03*
X57480Y128346D03*
G54D11*
G01X-161417Y5364D02*
Y8317D01*
X-160433D01*
X-160039Y8169D01*
X-159744Y7972D01*
X-159498Y7677D01*
X-159301Y7333D01*
X-159252Y6841D01*
X-159301Y6348D01*
X-159498Y6004D01*
X-159744Y5709D01*
X-160039Y5512D01*
X-160433Y5364D01*
X-161417D01*
G01X-155906D02*
X-157874D01*
Y8317D01*
X-155906D01*
G01X-156693Y6890D02*
X-157874D01*
G01X-154478Y5758D02*
X-154085Y5512D01*
X-153642Y5364D01*
X-153248D01*
X-152854Y5512D01*
X-152559Y5758D01*
X-152411Y6102D01*
X-152510Y6447D01*
X-152756Y6742D01*
X-153199Y6939D01*
X-153789Y7037D01*
X-154134Y7234D01*
X-154281Y7579D01*
X-154183Y7923D01*
X-153937Y8169D01*
X-153593Y8317D01*
X-153248D01*
X-152904Y8219D01*
X-152608Y7972D01*
G01X-150591Y8317D02*
X-149409D01*
G01X-150000D02*
Y5364D01*
G01X-150591D02*
X-149409D01*
G01X-146260Y6841D02*
X-145276D01*
Y5955D01*
X-145571Y5659D01*
X-145915Y5463D01*
X-146407Y5364D01*
X-146900Y5463D01*
X-147244Y5659D01*
X-147539Y5955D01*
X-147736Y6299D01*
X-147835Y6693D01*
Y7037D01*
X-147736Y7333D01*
X-147539Y7677D01*
X-147244Y7972D01*
X-146949Y8169D01*
X-146555Y8317D01*
X-146211D01*
X-145817Y8219D01*
X-145522Y8022D01*
G01X-144242Y5364D02*
Y8317D01*
X-141978Y5364D01*
Y8317D01*
G01X-135138Y8071D02*
X-135433Y8219D01*
X-135778Y8317D01*
X-136171D01*
X-136614Y8169D01*
X-136959Y7923D01*
X-137205Y7628D01*
X-137402Y7136D01*
X-137451Y6693D01*
X-137352Y6250D01*
X-137205Y5955D01*
X-136909Y5659D01*
X-136565Y5463D01*
X-136220Y5364D01*
X-135876D01*
X-135531Y5463D01*
X-135236Y5610D01*
X-134990Y5807D01*
G01X-133760Y5364D02*
Y8317D01*
X-132530D01*
X-132136Y8169D01*
X-131890Y7972D01*
X-131791Y7579D01*
X-131890Y7185D01*
X-132185Y6939D01*
X-132530Y6791D01*
X-133760D01*
G01X-132530D02*
X-131791Y5364D01*
G01X-129331D02*
X-129724Y5413D01*
X-130069Y5610D01*
X-130364Y5906D01*
X-130561Y6250D01*
X-130659Y6644D01*
Y7037D01*
X-130561Y7431D01*
X-130364Y7776D01*
X-130069Y8071D01*
X-129724Y8268D01*
X-129331Y8317D01*
X-128937Y8268D01*
X-128593Y8071D01*
X-128297Y7776D01*
X-128100Y7431D01*
X-128002Y7037D01*
Y6644D01*
X-128100Y6250D01*
X-128297Y5906D01*
X-128593Y5610D01*
X-128937Y5413D01*
X-129331Y5364D01*
G01X-126919Y5758D02*
X-126526Y5512D01*
X-126083Y5364D01*
X-125689D01*
X-125295Y5512D01*
X-125000Y5758D01*
X-124852Y6102D01*
X-124951Y6447D01*
X-125197Y6742D01*
X-125640Y6939D01*
X-126230Y7037D01*
X-126575Y7234D01*
X-126722Y7579D01*
X-126624Y7923D01*
X-126378Y8169D01*
X-126033Y8317D01*
X-125689D01*
X-125344Y8219D01*
X-125049Y7972D01*
G01X-123474Y5758D02*
X-123081Y5512D01*
X-122638Y5364D01*
X-122244D01*
X-121850Y5512D01*
X-121555Y5758D01*
X-121407Y6102D01*
X-121506Y6447D01*
X-121752Y6742D01*
X-122195Y6939D01*
X-122785Y7037D01*
X-123130Y7234D01*
X-123278Y7579D01*
X-123179Y7923D01*
X-122933Y8169D01*
X-122589Y8317D01*
X-122244D01*
X-121900Y8219D01*
X-121604Y7972D01*
G01X-116585Y5758D02*
X-116191Y5512D01*
X-115748Y5364D01*
X-115354D01*
X-114961Y5512D01*
X-114665Y5758D01*
X-114518Y6102D01*
X-114616Y6447D01*
X-114862Y6742D01*
X-115305Y6939D01*
X-115896Y7037D01*
X-116240Y7234D01*
X-116388Y7579D01*
X-116289Y7923D01*
X-116043Y8169D01*
X-115699Y8317D01*
X-115354D01*
X-115010Y8219D01*
X-114715Y7972D01*
G01X-111122Y5364D02*
X-113091D01*
Y8317D01*
X-111122D01*
G01X-111909Y6890D02*
X-113091D01*
G01X-107579Y8071D02*
X-107874Y8219D01*
X-108219Y8317D01*
X-108612D01*
X-109055Y8169D01*
X-109400Y7923D01*
X-109646Y7628D01*
X-109843Y7136D01*
X-109892Y6693D01*
X-109793Y6250D01*
X-109646Y5955D01*
X-109350Y5659D01*
X-109006Y5463D01*
X-108661Y5364D01*
X-108317D01*
X-107972Y5463D01*
X-107677Y5610D01*
X-107431Y5807D01*
G01X-105217Y8317D02*
Y5364D01*
G01X-106348Y8317D02*
X-104085D01*
G01X-102362D02*
X-101181D01*
G01X-101772D02*
Y5364D01*
G01X-102362D02*
X-101181D01*
G01X-98327D02*
X-98720Y5413D01*
X-99065Y5610D01*
X-99360Y5906D01*
X-99557Y6250D01*
X-99656Y6644D01*
Y7037D01*
X-99557Y7431D01*
X-99360Y7776D01*
X-99065Y8071D01*
X-98720Y8268D01*
X-98327Y8317D01*
X-97933Y8268D01*
X-97589Y8071D01*
X-97293Y7776D01*
X-97096Y7431D01*
X-96998Y7037D01*
Y6644D01*
X-97096Y6250D01*
X-97293Y5906D01*
X-97589Y5610D01*
X-97933Y5413D01*
X-98327Y5364D01*
G01X-96014D02*
Y8317D01*
X-93750Y5364D01*
Y8317D01*
G01X-86909Y8071D02*
X-87205Y8219D01*
X-87549Y8317D01*
X-87943D01*
X-88386Y8169D01*
X-88730Y7923D01*
X-88976Y7628D01*
X-89173Y7136D01*
X-89222Y6693D01*
X-89124Y6250D01*
X-88976Y5955D01*
X-88681Y5659D01*
X-88337Y5463D01*
X-87992Y5364D01*
X-87648D01*
X-87303Y5463D01*
X-87008Y5610D01*
X-86762Y5807D01*
G01X-85581Y5364D02*
Y8317D01*
G01X-83514D02*
Y5364D01*
G01Y6841D02*
X-85581D01*
G01X-82333Y5364D02*
X-81102Y8317D01*
X-79872Y5364D01*
G01X-80315Y6398D02*
X-81890D01*
G01X-78642Y5364D02*
Y8317D01*
X-77411D01*
X-77018Y8169D01*
X-76772Y7972D01*
X-76673Y7579D01*
X-76772Y7185D01*
X-77067Y6939D01*
X-77411Y6791D01*
X-78642D01*
G01X-77411D02*
X-76673Y5364D01*
G01X-74213Y8317D02*
Y5364D01*
G01X-75344Y8317D02*
X-73081D01*
G01X-163533Y4380D02*
X-160581D01*
G01X-160089D02*
X-157136D01*
G01X-156644D02*
X-153691D01*
G01X-153199D02*
X-150246D01*
G01X-149754D02*
X-146801D01*
G01X-146309D02*
X-143356D01*
G01X-142864D02*
X-139911D01*
G01X-139419D02*
X-136467D01*
G01X-135974D02*
X-133022D01*
G01X-132530D02*
X-129577D01*
G01X-129085D02*
X-126132D01*
G01X-125640D02*
X-122687D01*
G01X-122195D02*
X-119242D01*
G01X-118750D02*
X-115797D01*
G01X-115305D02*
X-112352D01*
G01X-111860D02*
X-108907D01*
G01X-108415D02*
X-105463D01*
G01X-104970D02*
X-102018D01*
G01X-101526D02*
X-98573D01*
G01X-98081D02*
X-95128D01*
G01X-94636D02*
X-91683D01*
G01X-91191D02*
X-88238D01*
G01X-87746D02*
X-84793D01*
G01X-84301D02*
X-81348D01*
G01X-80856D02*
X-77904D01*
G01X-77411D02*
X-74459D01*
G01X-73967D02*
X-71014D01*
G01X-153445Y3002D02*
Y49D01*
G01X-154577Y3002D02*
X-152313D01*
G01X-150000Y49D02*
X-150394Y98D01*
X-150738Y295D01*
X-151033Y591D01*
X-151230Y935D01*
X-151329Y1329D01*
Y1722D01*
X-151230Y2116D01*
X-151033Y2461D01*
X-150738Y2756D01*
X-150394Y2953D01*
X-150000Y3002D01*
X-149606Y2953D01*
X-149262Y2756D01*
X-148967Y2461D01*
X-148770Y2116D01*
X-148671Y1722D01*
Y1329D01*
X-148770Y935D01*
X-148967Y591D01*
X-149262Y295D01*
X-149606Y98D01*
X-150000Y49D01*
G01X-146555Y3002D02*
Y49D01*
G01X-147687Y3002D02*
X-145423D01*
G01X-144341Y49D02*
X-143110Y3002D01*
X-141880Y49D01*
G01X-142323Y1083D02*
X-143898D01*
G01X-140650Y3002D02*
Y49D01*
X-138681D01*
G01X-132776Y3002D02*
Y49D01*
G01X-133907Y3002D02*
X-131644D01*
G01X-130364Y49D02*
Y3002D01*
G01X-128297D02*
Y49D01*
G01Y1526D02*
X-130364D01*
G01X-126476Y3002D02*
X-125295D01*
G01X-125886D02*
Y49D01*
G01X-126476D02*
X-125295D01*
G01X-121358Y2756D02*
X-121654Y2904D01*
X-121998Y3002D01*
X-122392D01*
X-122835Y2854D01*
X-123179Y2608D01*
X-123425Y2313D01*
X-123622Y1821D01*
X-123671Y1378D01*
X-123573Y935D01*
X-123425Y640D01*
X-123130Y344D01*
X-122785Y148D01*
X-122441Y49D01*
X-122096D01*
X-121752Y148D01*
X-121457Y295D01*
X-121211Y492D01*
G01X-120079Y49D02*
Y3002D01*
G01X-118209D02*
X-120079Y1181D01*
G01X-117913Y49D02*
X-119242Y2018D01*
G01X-116683Y49D02*
Y3002D01*
X-114419Y49D01*
Y3002D01*
G01X-111122Y49D02*
X-113091D01*
Y3002D01*
X-111122D01*
G01X-111909Y1575D02*
X-113091D01*
G01X-109695Y443D02*
X-109301Y197D01*
X-108858Y49D01*
X-108465D01*
X-108071Y197D01*
X-107776Y443D01*
X-107628Y787D01*
X-107726Y1132D01*
X-107972Y1427D01*
X-108415Y1624D01*
X-109006Y1722D01*
X-109350Y1919D01*
X-109498Y2264D01*
X-109400Y2608D01*
X-109154Y2854D01*
X-108809Y3002D01*
X-108465D01*
X-108120Y2904D01*
X-107825Y2657D01*
G01X-106250Y443D02*
X-105856Y197D01*
X-105413Y49D01*
X-105020D01*
X-104626Y197D01*
X-104331Y443D01*
X-104183Y787D01*
X-104281Y1132D01*
X-104528Y1427D01*
X-104970Y1624D01*
X-105561Y1722D01*
X-105906Y1919D01*
X-106053Y2264D01*
X-105955Y2608D01*
X-105709Y2854D01*
X-105364Y3002D01*
X-105020D01*
X-104675Y2904D01*
X-104380Y2657D01*
G01X-98327Y49D02*
Y3002D01*
X-98917Y2411D01*
G01Y49D02*
X-97736D01*
G01X-94882Y-49D02*
X-94980Y0D01*
Y98D01*
X-94882Y148D01*
X-94783Y98D01*
Y0D01*
X-94882Y-49D01*
G01X-92372Y1280D02*
X-92028Y1624D01*
X-91732Y1821D01*
X-91339Y1919D01*
X-90994Y1821D01*
X-90748Y1624D01*
X-90551Y1329D01*
X-90502Y984D01*
X-90551Y689D01*
X-90748Y394D01*
X-91043Y148D01*
X-91388Y49D01*
X-91781Y148D01*
X-92126Y443D01*
X-92323Y886D01*
X-92372Y1378D01*
X-92274Y2018D01*
X-92126Y2362D01*
X-91880Y2707D01*
X-91535Y2953D01*
X-91191Y3002D01*
X-90846Y2904D01*
X-90600Y2657D01*
G01X-85827Y49D02*
Y3002D01*
X-84547Y541D01*
X-83268Y3002D01*
Y49D01*
G01X-82382D02*
Y3002D01*
X-81102Y541D01*
X-79823Y3002D01*
Y49D01*
G01X-119774Y224110D02*
X-122726D01*
X-122136Y223519D01*
G01X-119774D02*
Y224700D01*
G01X-120758Y226915D02*
Y228194D01*
G01X-122234Y230065D02*
X-122530Y230360D01*
X-122677Y230704D01*
X-122726Y231098D01*
X-122628Y231590D01*
X-122382Y231935D01*
X-122087Y232033D01*
X-121791Y231984D01*
X-121545Y231787D01*
X-121053Y230803D01*
X-120709Y230360D01*
X-120217Y230065D01*
X-119774Y229966D01*
Y232033D01*
G01X-83337Y19390D02*
Y16437D01*
X-81368D01*
G01X-79843Y18898D02*
X-79547Y19193D01*
X-79203Y19341D01*
X-78809Y19390D01*
X-78317Y19291D01*
X-77972Y19045D01*
X-77874Y18750D01*
X-77923Y18455D01*
X-78120Y18209D01*
X-79104Y17717D01*
X-79547Y17372D01*
X-79843Y16880D01*
X-79941Y16437D01*
X-77874D01*
G01X-71624Y18012D02*
X-71427Y18159D01*
X-71280Y18406D01*
X-71181Y18750D01*
X-71280Y19045D01*
X-71476Y19242D01*
X-71821Y19390D01*
X-73150D01*
Y16437D01*
X-71526D01*
X-71181Y16634D01*
X-70984Y16929D01*
X-70886Y17274D01*
X-70984Y17618D01*
X-71280Y17913D01*
X-71624Y18012D01*
X-73150D01*
G01X-68573Y16437D02*
X-68967Y16486D01*
X-69311Y16683D01*
X-69606Y16978D01*
X-69803Y17323D01*
X-69902Y17717D01*
Y18110D01*
X-69803Y18504D01*
X-69606Y18848D01*
X-69311Y19144D01*
X-68967Y19341D01*
X-68573Y19390D01*
X-68179Y19341D01*
X-67835Y19144D01*
X-67539Y18848D01*
X-67343Y18504D01*
X-67244Y18110D01*
Y17717D01*
X-67343Y17323D01*
X-67539Y16978D01*
X-67835Y16683D01*
X-68179Y16486D01*
X-68573Y16437D01*
G01X-65128Y19390D02*
Y16437D01*
G01X-66260Y19390D02*
X-63996D01*
G01X-61683D02*
Y16437D01*
G01X-62815Y19390D02*
X-60551D01*
G01X-58238Y16437D02*
X-58632Y16486D01*
X-58976Y16683D01*
X-59272Y16978D01*
X-59469Y17323D01*
X-59567Y17717D01*
Y18110D01*
X-59469Y18504D01*
X-59272Y18848D01*
X-58976Y19144D01*
X-58632Y19341D01*
X-58238Y19390D01*
X-57844Y19341D01*
X-57500Y19144D01*
X-57205Y18848D01*
X-57008Y18504D01*
X-56909Y18110D01*
Y17717D01*
X-57008Y17323D01*
X-57205Y16978D01*
X-57500Y16683D01*
X-57844Y16486D01*
X-58238Y16437D01*
G01X-56073D02*
Y19390D01*
X-54793Y16929D01*
X-53514Y19390D01*
Y16437D01*
G01X-46821Y19144D02*
X-47116Y19291D01*
X-47461Y19390D01*
X-47854D01*
X-48297Y19242D01*
X-48642Y18996D01*
X-48888Y18701D01*
X-49085Y18209D01*
X-49134Y17766D01*
X-49035Y17323D01*
X-48888Y17028D01*
X-48593Y16732D01*
X-48248Y16535D01*
X-47904Y16437D01*
X-47559D01*
X-47215Y16535D01*
X-46919Y16683D01*
X-46673Y16880D01*
G01X-44459Y16437D02*
X-44852Y16486D01*
X-45197Y16683D01*
X-45492Y16978D01*
X-45689Y17323D01*
X-45787Y17717D01*
Y18110D01*
X-45689Y18504D01*
X-45492Y18848D01*
X-45197Y19144D01*
X-44852Y19341D01*
X-44459Y19390D01*
X-44065Y19341D01*
X-43720Y19144D01*
X-43425Y18848D01*
X-43228Y18504D01*
X-43130Y18110D01*
Y17717D01*
X-43228Y17323D01*
X-43425Y16978D01*
X-43720Y16683D01*
X-44065Y16486D01*
X-44459Y16437D01*
G01X-42146D02*
Y19390D01*
X-39882Y16437D01*
Y19390D01*
G01X-38652Y16437D02*
Y19390D01*
X-37667D01*
X-37274Y19242D01*
X-36978Y19045D01*
X-36732Y18750D01*
X-36535Y18406D01*
X-36486Y17913D01*
X-36535Y17421D01*
X-36732Y17077D01*
X-36978Y16781D01*
X-37274Y16585D01*
X-37667Y16437D01*
X-38652D01*
G01X-35207Y19390D02*
Y17274D01*
X-35010Y16831D01*
X-34616Y16535D01*
X-34124Y16437D01*
X-33632Y16535D01*
X-33238Y16831D01*
X-33041Y17274D01*
Y19390D01*
G01X-29596Y19144D02*
X-29892Y19291D01*
X-30236Y19390D01*
X-30630D01*
X-31073Y19242D01*
X-31417Y18996D01*
X-31663Y18701D01*
X-31860Y18209D01*
X-31909Y17766D01*
X-31811Y17323D01*
X-31663Y17028D01*
X-31368Y16732D01*
X-31024Y16535D01*
X-30679Y16437D01*
X-30335D01*
X-29990Y16535D01*
X-29695Y16683D01*
X-29449Y16880D01*
G01X-27234Y19390D02*
Y16437D01*
G01X-28366Y19390D02*
X-26102D01*
G01X-23789Y16437D02*
X-24183Y16486D01*
X-24528Y16683D01*
X-24823Y16978D01*
X-25020Y17323D01*
X-25118Y17717D01*
Y18110D01*
X-25020Y18504D01*
X-24823Y18848D01*
X-24528Y19144D01*
X-24183Y19341D01*
X-23789Y19390D01*
X-23396Y19341D01*
X-23051Y19144D01*
X-22756Y18848D01*
X-22559Y18504D01*
X-22461Y18110D01*
Y17717D01*
X-22559Y17323D01*
X-22756Y16978D01*
X-23051Y16683D01*
X-23396Y16486D01*
X-23789Y16437D01*
G01X-21329D02*
Y19390D01*
X-20098D01*
X-19705Y19242D01*
X-19459Y19045D01*
X-19360Y18652D01*
X-19459Y18258D01*
X-19754Y18012D01*
X-20098Y17864D01*
X-21329D01*
G01X-20098D02*
X-19360Y16437D01*
G01X-76545Y12402D02*
X-74380Y14567D01*
G01X-75463Y14961D02*
Y12008D01*
G01X-74380Y12402D02*
X-76545Y14567D01*
G01X-76939Y13484D02*
X-73986D01*
G01X-66161Y12894D02*
X-65768Y12648D01*
X-65325Y12500D01*
X-64931D01*
X-64537Y12648D01*
X-64242Y12894D01*
X-64094Y13238D01*
X-64193Y13583D01*
X-64439Y13878D01*
X-64882Y14075D01*
X-65472Y14173D01*
X-65817Y14370D01*
X-65965Y14715D01*
X-65866Y15059D01*
X-65620Y15305D01*
X-65276Y15453D01*
X-64931D01*
X-64587Y15354D01*
X-64291Y15108D01*
G01X-62766Y15453D02*
Y13337D01*
X-62569Y12894D01*
X-62175Y12598D01*
X-61683Y12500D01*
X-61191Y12598D01*
X-60797Y12894D01*
X-60600Y13337D01*
Y15453D01*
G01X-59222Y12500D02*
Y15453D01*
X-57992D01*
X-57598Y15305D01*
X-57352Y15108D01*
X-57254Y14715D01*
X-57352Y14321D01*
X-57648Y14075D01*
X-57992Y13927D01*
X-59222D01*
G01X-57992D02*
X-57254Y12500D01*
G01X-55728D02*
Y15453D01*
X-53858D01*
G01X-54547Y14026D02*
X-55728D01*
G01X-52579Y12500D02*
X-51348Y15453D01*
X-50118Y12500D01*
G01X-50561Y13533D02*
X-52136D01*
G01X-46821Y15207D02*
X-47116Y15354D01*
X-47461Y15453D01*
X-47854D01*
X-48297Y15305D01*
X-48642Y15059D01*
X-48888Y14764D01*
X-49085Y14272D01*
X-49134Y13829D01*
X-49035Y13386D01*
X-48888Y13091D01*
X-48593Y12795D01*
X-48248Y12598D01*
X-47904Y12500D01*
X-47559D01*
X-47215Y12598D01*
X-46919Y12746D01*
X-46673Y12943D01*
G01X-43474Y12500D02*
X-45443D01*
Y15453D01*
X-43474D01*
G01X-44262Y14026D02*
X-45443D01*
G01X-76545Y118795D02*
X-74380Y120961D01*
G01X-75463Y121354D02*
Y118402D01*
G01X-74380Y118795D02*
X-76545Y120961D01*
G01X-76939Y119878D02*
X-73986D01*
G01X-66211Y118894D02*
Y121846D01*
X-65226D01*
X-64833Y121699D01*
X-64537Y121502D01*
X-64291Y121207D01*
X-64094Y120862D01*
X-64045Y120370D01*
X-64094Y119878D01*
X-64291Y119533D01*
X-64537Y119238D01*
X-64833Y119041D01*
X-65226Y118894D01*
X-66211D01*
G01X-62274Y121846D02*
X-61093D01*
G01X-61683D02*
Y118894D01*
G01X-62274D02*
X-61093D01*
G01X-57254D02*
X-59222D01*
Y121846D01*
X-57254D01*
G01X-58041Y120419D02*
X-59222D01*
G01X-55778Y121846D02*
Y118894D01*
X-53809D01*
G01X-50364D02*
X-52333D01*
Y121846D01*
X-50364D01*
G01X-51152Y120419D02*
X-52333D01*
G01X-46821Y121600D02*
X-47116Y121748D01*
X-47461Y121846D01*
X-47854D01*
X-48297Y121699D01*
X-48642Y121453D01*
X-48888Y121157D01*
X-49085Y120665D01*
X-49134Y120222D01*
X-49035Y119780D01*
X-48888Y119484D01*
X-48593Y119189D01*
X-48248Y118992D01*
X-47904Y118894D01*
X-47559D01*
X-47215Y118992D01*
X-46919Y119140D01*
X-46673Y119337D01*
G01X-44459Y121846D02*
Y118894D01*
G01X-45591Y121846D02*
X-43327D01*
G01X-41998Y118894D02*
Y121846D01*
X-40768D01*
X-40374Y121699D01*
X-40128Y121502D01*
X-40030Y121108D01*
X-40128Y120715D01*
X-40423Y120469D01*
X-40768Y120321D01*
X-41998D01*
G01X-40768D02*
X-40030Y118894D01*
G01X-38159Y121846D02*
X-36978D01*
G01X-37569D02*
Y118894D01*
G01X-38159D02*
X-36978D01*
G01X-33041Y121600D02*
X-33337Y121748D01*
X-33681Y121846D01*
X-34075D01*
X-34518Y121699D01*
X-34862Y121453D01*
X-35108Y121157D01*
X-35305Y120665D01*
X-35354Y120222D01*
X-35256Y119780D01*
X-35108Y119484D01*
X-34813Y119189D01*
X-34469Y118992D01*
X-34124Y118894D01*
X-33780D01*
X-33435Y118992D01*
X-33140Y119140D01*
X-32894Y119337D01*
G01X-76545Y220567D02*
X-74380Y222732D01*
G01X-75463Y223126D02*
Y220173D01*
G01X-74380Y220567D02*
X-76545Y222732D01*
G01X-76939Y221649D02*
X-73986D01*
G01X-66161Y221059D02*
X-65768Y220813D01*
X-65325Y220665D01*
X-64931D01*
X-64537Y220813D01*
X-64242Y221059D01*
X-64094Y221403D01*
X-64193Y221748D01*
X-64439Y222043D01*
X-64882Y222240D01*
X-65472Y222338D01*
X-65817Y222535D01*
X-65965Y222880D01*
X-65866Y223224D01*
X-65620Y223470D01*
X-65276Y223618D01*
X-64931D01*
X-64587Y223519D01*
X-64291Y223273D01*
G01X-62766Y223618D02*
Y221502D01*
X-62569Y221059D01*
X-62175Y220763D01*
X-61683Y220665D01*
X-61191Y220763D01*
X-60797Y221059D01*
X-60600Y221502D01*
Y223618D01*
G01X-59222Y220665D02*
Y223618D01*
X-57992D01*
X-57598Y223470D01*
X-57352Y223273D01*
X-57254Y222880D01*
X-57352Y222486D01*
X-57648Y222240D01*
X-57992Y222092D01*
X-59222D01*
G01X-57992D02*
X-57254Y220665D01*
G01X-55728D02*
Y223618D01*
X-53858D01*
G01X-54547Y222191D02*
X-55728D01*
G01X-52579Y220665D02*
X-51348Y223618D01*
X-50118Y220665D01*
G01X-50561Y221698D02*
X-52136D01*
G01X-46821Y223372D02*
X-47116Y223519D01*
X-47461Y223618D01*
X-47854D01*
X-48297Y223470D01*
X-48642Y223224D01*
X-48888Y222929D01*
X-49085Y222437D01*
X-49134Y221994D01*
X-49035Y221551D01*
X-48888Y221256D01*
X-48593Y220960D01*
X-48248Y220763D01*
X-47904Y220665D01*
X-47559D01*
X-47215Y220763D01*
X-46919Y220911D01*
X-46673Y221108D01*
G01X-43474Y220665D02*
X-45443D01*
Y223618D01*
X-43474D01*
G01X-44262Y222191D02*
X-45443D01*
G01X-83337Y218696D02*
Y215744D01*
X-81368D01*
G01X-78907D02*
Y218696D01*
X-79498Y218106D01*
G01Y215744D02*
X-78317D01*
G01X-72018Y218696D02*
Y215744D01*
G01X-73150Y218696D02*
X-70886D01*
G01X-68573Y215744D02*
X-68967Y215793D01*
X-69311Y215990D01*
X-69606Y216285D01*
X-69803Y216630D01*
X-69902Y217023D01*
Y217417D01*
X-69803Y217811D01*
X-69606Y218155D01*
X-69311Y218450D01*
X-68967Y218647D01*
X-68573Y218696D01*
X-68179Y218647D01*
X-67835Y218450D01*
X-67539Y218155D01*
X-67343Y217811D01*
X-67244Y217417D01*
Y217023D01*
X-67343Y216630D01*
X-67539Y216285D01*
X-67835Y215990D01*
X-68179Y215793D01*
X-68573Y215744D01*
G01X-66112D02*
Y218696D01*
X-64931D01*
X-64537Y218549D01*
X-64242Y218204D01*
X-64144Y217811D01*
X-64242Y217417D01*
X-64488Y217122D01*
X-64931Y216974D01*
X-66112D01*
G01X-57156Y218450D02*
X-57451Y218598D01*
X-57795Y218696D01*
X-58189D01*
X-58632Y218549D01*
X-58976Y218303D01*
X-59222Y218007D01*
X-59419Y217515D01*
X-59469Y217072D01*
X-59370Y216630D01*
X-59222Y216334D01*
X-58927Y216039D01*
X-58583Y215842D01*
X-58238Y215744D01*
X-57894D01*
X-57549Y215842D01*
X-57254Y215990D01*
X-57008Y216187D01*
G01X-54793Y215744D02*
X-55187Y215793D01*
X-55531Y215990D01*
X-55827Y216285D01*
X-56024Y216630D01*
X-56122Y217023D01*
Y217417D01*
X-56024Y217811D01*
X-55827Y218155D01*
X-55531Y218450D01*
X-55187Y218647D01*
X-54793Y218696D01*
X-54400Y218647D01*
X-54055Y218450D01*
X-53760Y218155D01*
X-53563Y217811D01*
X-53465Y217417D01*
Y217023D01*
X-53563Y216630D01*
X-53760Y216285D01*
X-54055Y215990D01*
X-54400Y215793D01*
X-54793Y215744D01*
G01X-52480D02*
Y218696D01*
X-50217Y215744D01*
Y218696D01*
G01X-48986Y215744D02*
Y218696D01*
X-48002D01*
X-47608Y218549D01*
X-47313Y218352D01*
X-47067Y218057D01*
X-46870Y217712D01*
X-46821Y217220D01*
X-46870Y216728D01*
X-47067Y216383D01*
X-47313Y216088D01*
X-47608Y215891D01*
X-48002Y215744D01*
X-48986D01*
G01X-45541Y218696D02*
Y216580D01*
X-45344Y216137D01*
X-44951Y215842D01*
X-44459Y215744D01*
X-43967Y215842D01*
X-43573Y216137D01*
X-43376Y216580D01*
Y218696D01*
G01X-39931Y218450D02*
X-40226Y218598D01*
X-40571Y218696D01*
X-40965D01*
X-41407Y218549D01*
X-41752Y218303D01*
X-41998Y218007D01*
X-42195Y217515D01*
X-42244Y217072D01*
X-42146Y216630D01*
X-41998Y216334D01*
X-41703Y216039D01*
X-41358Y215842D01*
X-41014Y215744D01*
X-40669D01*
X-40325Y215842D01*
X-40030Y215990D01*
X-39783Y216187D01*
G01X-37569Y218696D02*
Y215744D01*
G01X-38701Y218696D02*
X-36437D01*
G01X-34124Y215744D02*
X-34518Y215793D01*
X-34862Y215990D01*
X-35157Y216285D01*
X-35354Y216630D01*
X-35453Y217023D01*
Y217417D01*
X-35354Y217811D01*
X-35157Y218155D01*
X-34862Y218450D01*
X-34518Y218647D01*
X-34124Y218696D01*
X-33730Y218647D01*
X-33386Y218450D01*
X-33091Y218155D01*
X-32894Y217811D01*
X-32795Y217417D01*
Y217023D01*
X-32894Y216630D01*
X-33091Y216285D01*
X-33386Y215990D01*
X-33730Y215793D01*
X-34124Y215744D01*
G01X-31663D02*
Y218696D01*
X-30433D01*
X-30039Y218549D01*
X-29793Y218352D01*
X-29695Y217958D01*
X-29793Y217565D01*
X-30089Y217319D01*
X-30433Y217171D01*
X-31663D01*
G01X-30433D02*
X-29695Y215744D01*
G54D12*
G01X-139389Y-88632D02*
Y-76132D01*
X-133498D01*
G01X-135669Y-82173D02*
X-139389D01*
G01X-125904Y-76132D02*
X-122184D01*
G01X-124044D02*
Y-88632D01*
G01X-125904D02*
X-122184D01*
G01X-110714Y-82382D02*
X-107613D01*
Y-86132D01*
X-108544Y-87382D01*
X-109629Y-88215D01*
X-111179Y-88632D01*
X-112729Y-88215D01*
X-113814Y-87382D01*
X-114744Y-86132D01*
X-115364Y-84674D01*
X-115674Y-83007D01*
Y-81548D01*
X-115364Y-80299D01*
X-114744Y-78840D01*
X-113814Y-77590D01*
X-112884Y-76757D01*
X-111644Y-76132D01*
X-110559D01*
X-109319Y-76548D01*
X-108389Y-77382D01*
G01X-102654Y-76132D02*
Y-85090D01*
X-102034Y-86966D01*
X-100794Y-88215D01*
X-99244Y-88632D01*
X-97694Y-88215D01*
X-96454Y-86966D01*
X-95834Y-85090D01*
Y-76132D01*
G01X-89944Y-88632D02*
Y-76132D01*
X-86069D01*
X-84829Y-76757D01*
X-84054Y-77590D01*
X-83744Y-79257D01*
X-84054Y-80924D01*
X-84984Y-81965D01*
X-86069Y-82591D01*
X-89944D01*
G01X-86069D02*
X-83744Y-88632D01*
G01X-71344D02*
X-77544D01*
Y-76132D01*
X-71344D01*
G01X-73824Y-82173D02*
X-77544D01*
G01X-150394Y-119882D02*
Y-19291D01*
X345606D01*
Y-119882D01*
X-150394D01*
G01Y-94882D02*
X345606D01*
G01X-150394Y-69882D02*
X345606D01*
G01X-150394Y-44882D02*
X345606D01*
G01X-147274Y20374D02*
Y217413D01*
X-87274D01*
Y20374D01*
X-147274D01*
G01X-73669Y-63632D02*
X-69794Y-51132D01*
X-65919Y-63632D01*
G01X-67314Y-59257D02*
X-72274D01*
G01X-60494Y-51132D02*
Y-63632D01*
X-54294D01*
G01X-48094Y-51132D02*
Y-63632D01*
X-41894D01*
G01X-23604Y-51132D02*
Y-60090D01*
X-22984Y-61966D01*
X-21744Y-63215D01*
X-20194Y-63632D01*
X-18644Y-63215D01*
X-17404Y-61966D01*
X-16784Y-60090D01*
Y-51132D01*
G01X-11359Y-63632D02*
Y-51132D01*
X-4229Y-63632D01*
Y-51132D01*
G01X2746D02*
X6466D01*
G01X4606D02*
Y-63632D01*
G01X2746D02*
X6466D01*
G01X17006Y-51132D02*
Y-63632D01*
G01X13441Y-51132D02*
X20571D01*
G01X26151Y-61966D02*
X27391Y-63007D01*
X28786Y-63632D01*
X30026D01*
X31266Y-63007D01*
X32196Y-61966D01*
X32661Y-60507D01*
X32352Y-59049D01*
X31576Y-57799D01*
X30181Y-56965D01*
X28321Y-56548D01*
X27236Y-55715D01*
X26771Y-54257D01*
X27081Y-52798D01*
X27856Y-51757D01*
X28941Y-51132D01*
X30026D01*
X31111Y-51548D01*
X32041Y-52590D01*
G01X50331Y-63632D02*
X54206Y-51132D01*
X58081Y-63632D01*
G01X56686Y-59257D02*
X51726D01*
G01X63506Y-63632D02*
Y-51132D01*
X67381D01*
X68621Y-51757D01*
X69396Y-52590D01*
X69706Y-54257D01*
X69396Y-55924D01*
X68466Y-56965D01*
X67381Y-57591D01*
X63506D01*
G01X67381D02*
X69706Y-63632D01*
G01X82106D02*
X75906D01*
Y-51132D01*
X82106D01*
G01X79626Y-57173D02*
X75906D01*
G01X101946Y-51132D02*
X105666D01*
G01X103806D02*
Y-63632D01*
G01X101946D02*
X105666D01*
G01X112641D02*
Y-51132D01*
X119771Y-63632D01*
Y-51132D01*
G01X136976Y-63632D02*
Y-51132D01*
X141006Y-61548D01*
X145037Y-51132D01*
Y-63632D01*
G01X151546Y-51132D02*
X155266D01*
G01X153406D02*
Y-63632D01*
G01X151546D02*
X155266D01*
G01X162706Y-51132D02*
Y-63632D01*
X168906D01*
G01X175106Y-51132D02*
Y-63632D01*
X181306D01*
G01X188746Y-51132D02*
X192466D01*
G01X190606D02*
Y-63632D01*
G01X188746D02*
X192466D01*
G01X198976D02*
Y-51132D01*
X203006Y-61548D01*
X207037Y-51132D01*
Y-63632D01*
G01X218506D02*
X212306D01*
Y-51132D01*
X218506D01*
G01X216026Y-57173D02*
X212306D01*
G01X227806Y-51132D02*
Y-63632D01*
G01X224241Y-51132D02*
X231371D01*
G01X243306Y-63632D02*
X237106D01*
Y-51132D01*
X243306D01*
G01X240826Y-57173D02*
X237106D01*
G01X249506Y-63632D02*
Y-51132D01*
X253381D01*
X254621Y-51757D01*
X255396Y-52590D01*
X255706Y-54257D01*
X255396Y-55924D01*
X254466Y-56965D01*
X253381Y-57591D01*
X249506D01*
G01X253381D02*
X255706Y-63632D01*
G01X261751Y-61966D02*
X262991Y-63007D01*
X264386Y-63632D01*
X265626D01*
X266866Y-63007D01*
X267796Y-61966D01*
X268261Y-60507D01*
X267952Y-59049D01*
X267176Y-57799D01*
X265781Y-56965D01*
X263921Y-56548D01*
X262836Y-55715D01*
X262371Y-54257D01*
X262681Y-52798D01*
X263456Y-51757D01*
X264541Y-51132D01*
X265626D01*
X266711Y-51548D01*
X267641Y-52590D01*
G01X-60494Y-69882D02*
Y-119882D01*
G01X-60804Y-38041D02*
Y-25541D01*
X-57704D01*
X-56464Y-26167D01*
X-55534Y-27000D01*
X-54759Y-28250D01*
X-54139Y-29708D01*
X-53984Y-31791D01*
X-54139Y-33875D01*
X-54759Y-35333D01*
X-55534Y-36583D01*
X-56464Y-37417D01*
X-57704Y-38041D01*
X-60804D01*
G01X-48094D02*
Y-25541D01*
X-44219D01*
X-42979Y-26167D01*
X-42204Y-27000D01*
X-41894Y-28667D01*
X-42204Y-30333D01*
X-43134Y-31374D01*
X-44219Y-32000D01*
X-48094D01*
G01X-44219D02*
X-41894Y-38041D01*
G01X-34454Y-25541D02*
X-30734D01*
G01X-32594D02*
Y-38041D01*
G01X-34454D02*
X-30734D01*
G01X-23294Y-25541D02*
Y-38041D01*
X-17094D01*
G01X-10894Y-25541D02*
Y-38041D01*
X-4694D01*
G01X20416Y-26583D02*
X19486Y-25958D01*
X18402Y-25541D01*
X17161D01*
X15766Y-26167D01*
X14681Y-27208D01*
X13906Y-28458D01*
X13286Y-30541D01*
X13131Y-32417D01*
X13441Y-34291D01*
X13906Y-35541D01*
X14836Y-36792D01*
X15921Y-37625D01*
X17006Y-38041D01*
X18091D01*
X19176Y-37625D01*
X20106Y-37000D01*
X20881Y-36167D01*
G01X26151Y-38041D02*
Y-25541D01*
G01X32661D02*
Y-38041D01*
G01Y-31791D02*
X26151D01*
G01X37931Y-38041D02*
X41806Y-25541D01*
X45681Y-38041D01*
G01X44286Y-33667D02*
X39326D01*
G01X51106Y-38041D02*
Y-25541D01*
X54981D01*
X56221Y-26167D01*
X56996Y-27000D01*
X57306Y-28667D01*
X56996Y-30333D01*
X56066Y-31374D01*
X54981Y-32000D01*
X51106D01*
G01X54981D02*
X57306Y-38041D01*
G01X66606Y-25541D02*
Y-38041D01*
G01X63041Y-25541D02*
X70171D01*
G01X79006Y-38458D02*
X78696Y-38250D01*
Y-37833D01*
X79006Y-37625D01*
X79317Y-37833D01*
Y-38250D01*
X79006Y-38458D01*
G01Y-32833D02*
X78696Y-32625D01*
Y-32208D01*
X79006Y-32000D01*
X79317Y-32208D01*
Y-32625D01*
X79006Y-32833D01*
G01X103806Y-25541D02*
Y-38041D01*
G01X100241Y-25541D02*
X107371D01*
G01X116206Y-38041D02*
X114966Y-37833D01*
X113881Y-37000D01*
X112951Y-35750D01*
X112331Y-34291D01*
X112021Y-32625D01*
Y-30958D01*
X112331Y-29291D01*
X112951Y-27833D01*
X113881Y-26583D01*
X114966Y-25750D01*
X116206Y-25541D01*
X117446Y-25750D01*
X118531Y-26583D01*
X119461Y-27833D01*
X120081Y-29291D01*
X120391Y-30958D01*
Y-32625D01*
X120081Y-34291D01*
X119461Y-35750D01*
X118531Y-37000D01*
X117446Y-37833D01*
X116206Y-38041D01*
G01X125506D02*
Y-25541D01*
X129226D01*
X130466Y-26167D01*
X131396Y-27625D01*
X131706Y-29291D01*
X131396Y-30958D01*
X130621Y-32208D01*
X129226Y-32833D01*
X125506D01*
G01X153406Y-25541D02*
Y-38041D01*
G01X151236Y-29708D02*
X155576D01*
G01X165806Y-38041D02*
X164876Y-37833D01*
X163946Y-37000D01*
X163326Y-35541D01*
X163016Y-33875D01*
X163326Y-32208D01*
X163946Y-30750D01*
X164876Y-29917D01*
X165806Y-29708D01*
X166736Y-29917D01*
X167666Y-30750D01*
X168286Y-32208D01*
X168441Y-33875D01*
X168286Y-35541D01*
X167666Y-37000D01*
X166736Y-37833D01*
X165806Y-38041D01*
G01X191846Y-31374D02*
X192466Y-30750D01*
X192931Y-29708D01*
X193241Y-28250D01*
X192931Y-27000D01*
X192311Y-26167D01*
X191226Y-25541D01*
X187041D01*
Y-38041D01*
X192156D01*
X193241Y-37208D01*
X193861Y-35958D01*
X194171Y-34500D01*
X193861Y-33042D01*
X192931Y-31791D01*
X191846Y-31374D01*
X187041D01*
G01X203006Y-38041D02*
X201766Y-37833D01*
X200681Y-37000D01*
X199751Y-35750D01*
X199131Y-34291D01*
X198821Y-32625D01*
Y-30958D01*
X199131Y-29291D01*
X199751Y-27833D01*
X200681Y-26583D01*
X201766Y-25750D01*
X203006Y-25541D01*
X204246Y-25750D01*
X205331Y-26583D01*
X206261Y-27833D01*
X206881Y-29291D01*
X207191Y-30958D01*
Y-32625D01*
X206881Y-34291D01*
X206261Y-35750D01*
X205331Y-37000D01*
X204246Y-37833D01*
X203006Y-38041D01*
G01X215406Y-25541D02*
Y-38041D01*
G01X211841Y-25541D02*
X218971D01*
G01X227806D02*
Y-38041D01*
G01X224241Y-25541D02*
X231371D01*
G01X240206Y-38041D02*
X238966Y-37833D01*
X237881Y-37000D01*
X236951Y-35750D01*
X236331Y-34291D01*
X236021Y-32625D01*
Y-30958D01*
X236331Y-29291D01*
X236951Y-27833D01*
X237881Y-26583D01*
X238966Y-25750D01*
X240206Y-25541D01*
X241446Y-25750D01*
X242531Y-26583D01*
X243461Y-27833D01*
X244081Y-29291D01*
X244391Y-30958D01*
Y-32625D01*
X244081Y-34291D01*
X243461Y-35750D01*
X242531Y-37000D01*
X241446Y-37833D01*
X240206Y-38041D01*
G01X248576D02*
Y-25541D01*
X252606Y-35958D01*
X256637Y-25541D01*
Y-38041D01*
G01X-37089Y-88632D02*
Y-76132D01*
X-31198D01*
G01X-33369Y-82173D02*
X-37089D01*
G01X-23604Y-76132D02*
X-19884D01*
G01X-21744D02*
Y-88632D01*
G01X-23604D02*
X-19884D01*
G01X-12909D02*
Y-76132D01*
X-5779Y-88632D01*
Y-76132D01*
G01X1196D02*
X4916D01*
G01X3056D02*
Y-88632D01*
G01X1196D02*
X4916D01*
G01X12201Y-86966D02*
X13441Y-88007D01*
X14836Y-88632D01*
X16076D01*
X17316Y-88007D01*
X18246Y-86966D01*
X18711Y-85507D01*
X18402Y-84049D01*
X17626Y-82799D01*
X16231Y-81965D01*
X14371Y-81548D01*
X13286Y-80715D01*
X12821Y-79257D01*
X13131Y-77798D01*
X13906Y-76757D01*
X14991Y-76132D01*
X16076D01*
X17161Y-76548D01*
X18091Y-77590D01*
G01X24601Y-88632D02*
Y-76132D01*
G01X31111D02*
Y-88632D01*
G01Y-82382D02*
X24601D01*
G01X43356Y-88632D02*
X37156D01*
Y-76132D01*
X43356D01*
G01X40876Y-82173D02*
X37156D01*
G01X49246Y-88632D02*
Y-76132D01*
X52346D01*
X53586Y-76757D01*
X54516Y-77590D01*
X55291Y-78840D01*
X55911Y-80299D01*
X56066Y-82382D01*
X55911Y-84465D01*
X55291Y-85924D01*
X54516Y-87174D01*
X53586Y-88007D01*
X52346Y-88632D01*
X49246D01*
G01X60406Y-92798D02*
X69706D01*
G01X74201Y-86966D02*
X75441Y-88007D01*
X76836Y-88632D01*
X78076D01*
X79316Y-88007D01*
X80246Y-86966D01*
X80711Y-85507D01*
X80402Y-84049D01*
X79626Y-82799D01*
X78231Y-81965D01*
X76371Y-81548D01*
X75286Y-80715D01*
X74821Y-79257D01*
X75131Y-77798D01*
X75906Y-76757D01*
X76991Y-76132D01*
X78076D01*
X79161Y-76548D01*
X80091Y-77590D01*
G01X87996Y-76132D02*
X91716D01*
G01X89856D02*
Y-88632D01*
G01X87996D02*
X91716D01*
G01X99311Y-76132D02*
X105202D01*
X99311Y-88632D01*
X105202D01*
G01X117756D02*
X111556D01*
Y-76132D01*
X117756D01*
G01X115276Y-82173D02*
X111556D01*
G01X0Y0D02*
Y157480D01*
X157480D01*
Y0D01*
X0D01*
G01Y167323D02*
Y183465D01*
G01X56547Y173622D02*
X0D01*
G01X15748Y176083D02*
X0Y173622D01*
X15748Y171161D01*
Y176083D01*
G01X27856Y-101132D02*
X26616Y-101548D01*
X25686Y-102590D01*
X25066Y-103840D01*
X24601Y-105507D01*
X24446Y-107382D01*
X24601Y-109257D01*
X25066Y-110924D01*
X25686Y-112174D01*
X26616Y-113215D01*
X27856Y-113632D01*
X29096Y-113215D01*
X30026Y-112174D01*
X30646Y-110924D01*
X31111Y-109257D01*
X31266Y-107382D01*
X31111Y-105507D01*
X30646Y-103840D01*
X30026Y-102590D01*
X29096Y-101548D01*
X27856Y-101132D01*
G01X40256Y-114048D02*
X39946Y-113840D01*
Y-113424D01*
X40256Y-113215D01*
X40567Y-113424D01*
Y-113840D01*
X40256Y-114048D01*
G01X54516Y-113632D02*
Y-101132D01*
X48781Y-110090D01*
X56531D01*
G01X72431Y167372D02*
Y179872D01*
X66696Y170914D01*
X74447D01*
G01X82972Y179872D02*
X81731Y179456D01*
X80802Y178414D01*
X80181Y177164D01*
X79717Y175497D01*
X79562Y173622D01*
X79717Y171747D01*
X80181Y170080D01*
X80802Y168830D01*
X81731Y167789D01*
X82972Y167372D01*
X84211Y167789D01*
X85142Y168830D01*
X85762Y170080D01*
X86227Y171747D01*
X86381Y173622D01*
X86227Y175497D01*
X85762Y177164D01*
X85142Y178414D01*
X84211Y179456D01*
X82972Y179872D01*
G01X96996Y173622D02*
X157480D01*
G01X170456Y-88632D02*
Y-76132D01*
X174176D01*
X175416Y-76757D01*
X176346Y-78215D01*
X176656Y-79882D01*
X176346Y-81548D01*
X175571Y-82799D01*
X174176Y-83424D01*
X170456D01*
G01X182856Y-76132D02*
Y-88632D01*
X189056D01*
G01X194481D02*
X198356Y-76132D01*
X202231Y-88632D01*
G01X200836Y-84257D02*
X195876D01*
G01X210756Y-76132D02*
Y-88632D01*
G01X207191Y-76132D02*
X214321D01*
G01X226256Y-88632D02*
X220056D01*
Y-76132D01*
X226256D01*
G01X223776Y-82173D02*
X220056D01*
G01X232146Y-88632D02*
Y-76132D01*
X235246D01*
X236486Y-76757D01*
X237416Y-77590D01*
X238191Y-78840D01*
X238811Y-80299D01*
X238966Y-82382D01*
X238811Y-84465D01*
X238191Y-85924D01*
X237416Y-87174D01*
X236486Y-88007D01*
X235246Y-88632D01*
X232146D01*
G01X170456Y-113632D02*
Y-101132D01*
X174176D01*
X175416Y-101757D01*
X176346Y-103215D01*
X176656Y-104882D01*
X176346Y-106548D01*
X175571Y-107799D01*
X174176Y-108424D01*
X170456D01*
G01X182856Y-101132D02*
Y-113632D01*
X189056D01*
G01X194481D02*
X198356Y-101132D01*
X202231Y-113632D01*
G01X200836Y-109257D02*
X195876D01*
G01X210756Y-101132D02*
Y-113632D01*
G01X207191Y-101132D02*
X214321D01*
G01X226256Y-113632D02*
X220056D01*
Y-101132D01*
X226256D01*
G01X223776Y-107173D02*
X220056D01*
G01X232146Y-113632D02*
Y-101132D01*
X235246D01*
X236486Y-101757D01*
X237416Y-102590D01*
X238191Y-103840D01*
X238811Y-105299D01*
X238966Y-107382D01*
X238811Y-109465D01*
X238191Y-110924D01*
X237416Y-112174D01*
X236486Y-113007D01*
X235246Y-113632D01*
X232146D01*
G01X141006Y-69882D02*
Y-119882D01*
G01X167323Y0D02*
X185827D01*
G01X171644Y74065D02*
Y86565D01*
X165909Y77607D01*
X173659D01*
G01X182184Y86565D02*
X180944Y86148D01*
X180014Y85107D01*
X179394Y83857D01*
X178929Y82190D01*
X178774Y80315D01*
X178929Y78440D01*
X179394Y76773D01*
X180014Y75523D01*
X180944Y74481D01*
X182184Y74065D01*
X183424Y74481D01*
X184354Y75523D01*
X184974Y76773D01*
X185439Y78440D01*
X185594Y80315D01*
X185439Y82190D01*
X184974Y83857D01*
X184354Y85107D01*
X183424Y86148D01*
X182184Y86565D01*
G01X157480Y167323D02*
Y183465D01*
G01X141732Y171161D02*
X157480Y173622D01*
X141732Y176083D01*
Y171161D01*
G01X167323Y157480D02*
X185827D01*
G01X175984Y64690D02*
Y0D01*
G01X173524Y15748D02*
X175984Y0D01*
X178445Y15748D01*
X173524D01*
G01X175984Y95940D02*
Y157480D01*
G01X178445Y141732D02*
X175984Y157480D01*
X173524Y141732D01*
X178445D01*
G01X294456Y-88632D02*
X293216Y-88424D01*
X292131Y-87591D01*
X291201Y-86340D01*
X290581Y-84882D01*
X290271Y-83215D01*
Y-81548D01*
X290581Y-79882D01*
X291201Y-78424D01*
X292131Y-77174D01*
X293216Y-76340D01*
X294456Y-76132D01*
X295696Y-76340D01*
X296781Y-77174D01*
X297711Y-78424D01*
X298331Y-79882D01*
X298641Y-81548D01*
Y-83215D01*
X298331Y-84882D01*
X297711Y-86340D01*
X296781Y-87591D01*
X295696Y-88424D01*
X294456Y-88632D01*
G01X295696Y-85298D02*
X297556Y-88632D01*
G01X306856Y-76132D02*
Y-88632D01*
G01X303291Y-76132D02*
X310421D01*
G01X319256Y-88632D02*
Y-83007D01*
X316156Y-76132D01*
G01X322356D02*
X319256Y-83007D01*
G01X268106Y-69882D02*
Y-119882D01*
G01X303911Y-108424D02*
X304996Y-106965D01*
X305926Y-106132D01*
X307167Y-105715D01*
X308252Y-106132D01*
X309026Y-106965D01*
X309646Y-108215D01*
X309802Y-109674D01*
X309646Y-110924D01*
X309026Y-112174D01*
X308096Y-113215D01*
X307011Y-113632D01*
X305771Y-113215D01*
X304686Y-111966D01*
X304066Y-110090D01*
X303911Y-108007D01*
X304221Y-105299D01*
X304686Y-103840D01*
X305461Y-102382D01*
X306546Y-101340D01*
X307631Y-101132D01*
X308716Y-101548D01*
X309491Y-102590D01*
M02*
