G04 ================== begin FILE IDENTIFICATION RECORD ==================*
G04 Layout Name:  TEO_PCB.brd*
G04 Film Name:    SPTOP*
G04 File Format:  Gerber RS274X*
G04 File Origin:  Cadence Allegro 17.2-S025*
G04 Origin Date:  Mon Dec 30 22:13:27 2024*
G04 *
G04 Layer:  VIA CLASS/PASTEMASK_TOP*
G04 Layer:  PIN/PASTEMASK_TOP*
G04 Layer:  DRC ERROR CLASS/PASTEMASK_TOP*
G04 *
G04 Offset:    (0.0000 0.0000)*
G04 Mirror:    No*
G04 Mode:      Positive*
G04 Rotation:  0*
G04 FullContactRelief:  No*
G04 UndefLineWidth:     0.0000*
G04 ================== end FILE IDENTIFICATION RECORD ====================*
%FSLAX25Y25*MOIN*%
%IR0*IPPOS*OFA0.00000B0.00000*MIA0B0*SFA1.00000B1.00000*%
%ADD12R,.043307X.031496*%
%ADD13C,.031496*%
%ADD15R,.066929X.03937*%
%ADD16R,.043307X.070866*%
%ADD10C,.051181*%
%ADD14R,.057087X.127953*%
%ADD11R,.043307X.043307*%
%LPD*%
G75*
G54D10*
X9449Y9449D03*
Y21654D03*
Y48819D03*
X9843Y35827D03*
Y62992D03*
Y77953D03*
Y107087D03*
Y120866D03*
Y93701D03*
Y134252D03*
X28740Y9449D03*
X32677Y147638D03*
X79134Y9449D03*
X72047Y147638D03*
X90551Y9449D03*
X147638Y30315D03*
X147244Y51969D03*
X147638Y72047D03*
G54D11*
X21260Y27165D03*
Y37008D03*
X21654Y48819D03*
X20866Y86220D03*
Y77820D03*
X21654Y107087D03*
X42126Y23622D03*
X50526D03*
X29660Y27165D03*
X38976Y9449D03*
X47376D03*
X39764Y58268D03*
X29660Y37008D03*
X50394Y37795D03*
Y46195D03*
X30054Y48819D03*
X39764Y37795D03*
Y46195D03*
Y66668D03*
X29921Y77953D03*
Y86353D03*
X39370Y77953D03*
Y86353D03*
X48819Y77953D03*
Y86353D03*
X30054Y107087D03*
X45276Y106299D03*
Y97899D03*
X51575Y148425D03*
X43175D03*
X68504Y28740D03*
Y20340D03*
Y9449D03*
X60104D03*
X65748Y106693D03*
Y98293D03*
X75197Y98425D03*
Y106825D03*
X64173Y122047D03*
X72573D03*
X55906Y98031D03*
Y106431D03*
X64173Y136220D03*
X72573D03*
X92126Y31496D03*
Y23096D03*
X104331Y23228D03*
Y14173D03*
X87795Y88844D03*
Y97244D03*
X83858Y122047D03*
X92258D03*
G54D12*
X22421Y122698D03*
X30421Y118898D03*
X50894D03*
X30421Y126598D03*
X50894D03*
X42894Y122698D03*
G54D13*
X19685Y137795D03*
X137795Y19685D03*
G54D14*
X83071Y48425D03*
Y72835D03*
X115748Y48425D03*
Y72835D03*
G54D15*
X90157Y145669D03*
Y137769D03*
G54D16*
X126575Y18701D03*
M02*
