G04 ================== begin FILE IDENTIFICATION RECORD ==================*
G04 Layout Name:  TEO_PCB.brd*
G04 Film Name:    TOP*
G04 File Format:  Gerber RS274X*
G04 File Origin:  Cadence Allegro 17.2-S025*
G04 Origin Date:  Mon Dec 30 22:24:11 2024*
G04 *
G04 Layer:  ETCH/TOP*
G04 Layer:  PIN/TOP*
G04 Layer:  VIA CLASS/TOP*
G04 *
G04 Offset:    (0.0000 0.0000)*
G04 Mirror:    No*
G04 Mode:      Positive*
G04 Rotation:  0*
G04 FullContactRelief:  No*
G04 UndefLineWidth:     0.3000*
G04 ================== end FILE IDENTIFICATION RECORD ====================*
%FSLAX25Y25*MOIN*%
%IR0*IPPOS*OFA0.00000B0.00000*MIA0B0*SFA1.00000B1.00000*%
%ADD12R,.05X.036*%
%ADD14C,.024*%
%ADD18R,.051181X.07874*%
%ADD13C,.03937*%
%ADD10C,.051181*%
%ADD16R,.051181X.051181*%
%ADD15R,.064961X.135831*%
%ADD11R,.05X.05*%
%ADD17R,.076X.048*%
%ADD19C,.015748*%
%ADD20C,.017717*%
%ADD22C,.08663*%
%ADD21C,.080882*%
G75*
%LPD*%
G75*
G36*
G01X3937Y3937D02*
Y153543D01*
X39027D01*
G02X39265Y152822I0J-400D01*
G03X38312Y150925I1410J-1897D01*
G01Y150591D01*
X36615D01*
G03X28255Y145476I-3937J-2954D01*
G01Y130761D01*
X27921D01*
G03X25558Y128398I0J-2363D01*
G01Y127250D01*
G02X25124Y126852I-400J0D01*
G03X24921Y126861I-202J-2354D01*
G01X24607D01*
Y129703D01*
G03X22587Y133677I-2166J1399D01*
G02X22363Y134391I23J399D01*
G03X20181Y133492I-2678J3405D01*
G02X20524Y132827I46J-397D01*
G03X20275Y129703I1917J-1725D01*
G01Y126861D01*
X19921D01*
G03X18374Y126283I0J-2362D01*
G01X18233Y126162D01*
X13472Y130922D01*
X13592Y131063D01*
G03X8777Y129446I-3749J3189D01*
G01X8834Y129434D01*
X17565Y120703D01*
X17573Y120633D01*
G03X19921Y118535I2348J264D01*
G01X24921D01*
G03X25124Y118543I1J2363D01*
G02X25558Y118145I34J-398D01*
G01Y117098D01*
G03X25771Y116118I2363J0D01*
G02X25407Y115552I-364J-166D01*
G01X18220D01*
X14501Y119271D01*
X14537Y119387D01*
G03X11322Y116172I-4694J1479D01*
G01X11437Y116208D01*
X16426Y111220D01*
X16681D01*
G02X17039Y110641I0J-400D01*
G03X16791Y109587I2115J-1055D01*
G01Y109253D01*
X14262D01*
G03Y104920I-4420J-2166D01*
G01X16791D01*
Y104587D01*
G03X18551Y102302I2363J0D01*
G01X18700Y102263D01*
Y91083D01*
X18366D01*
G03X16003Y88720I0J-2363D01*
G01Y83720D01*
G03X16598Y82153I2363J0D01*
G02Y81888I-150J-133D01*
G03X16003Y80320I1769J-1567D01*
G01Y80085D01*
X15373D01*
X15241Y80217D01*
X14213D01*
G03X12107Y82323I-4370J-2265D01*
G01Y89331D01*
G03X7578I-2265J4370D01*
G01Y82323D01*
G03X14142Y75556I2265J-4370D01*
G01X16003D01*
Y75320D01*
G03X18366Y72957I2363J0D01*
G01X23366D01*
G03X25561Y74445I0J2363D01*
G02X26248Y74542I372J-148D01*
G03X27421Y73968I1173J910D01*
G01X32421D01*
G03X33906Y75453I0J1485D01*
G01Y80453D01*
G03X33627Y81319I-1485J0D01*
G02X33730Y81885I325J233D01*
G03X34324Y82451I-1309J1967D01*
G02X34968I322J-237D01*
G03X35561Y81885I1903J1401D01*
G02X35664Y81319I-222J-333D01*
G03X35385Y80453I1205J-867D01*
G01Y75453D01*
G03X36870Y73968I1485J0D01*
G01X41870D01*
G03X43355Y75453I0J1485D01*
G01Y80453D01*
G03X43076Y81319I-1485J0D01*
G02X43179Y81885I325J233D01*
G03X43772Y82451I-1309J1967D01*
G02X44417I322J-237D01*
G03X45010Y81885I1903J1401D01*
G02X45113Y81319I-222J-333D01*
G03X44834Y80453I1205J-867D01*
G01Y75453D01*
G03X46319Y73968I1485J0D01*
G01X51319D01*
G03X52804Y75453I0J1485D01*
G01Y80453D01*
G03X52525Y81319I-1485J0D01*
G02X52628Y81885I325J233D01*
G03X53682Y83853I-1309J1967D01*
G01Y88853D01*
G03X51319Y91216I-2363J0D01*
G01X46319D01*
G03X44417Y90254I0J-2363D01*
G02X43772I-322J237D01*
G03X41870Y91216I-1902J-1401D01*
G01X36870D01*
G03X34968Y90254I0J-2363D01*
G02X34324I-322J237D01*
G03X32421Y91216I-1902J-1401D01*
G01X27421D01*
G03X25635Y90400I0J-2363D01*
G02X25048Y90380I-302J262D01*
G03X23366Y91083I-1682J-1660D01*
G01X23032D01*
Y102224D01*
X32554D01*
G03X34917Y104587I0J2363D01*
G01Y104920D01*
X40413D01*
Y103799D01*
G03X41007Y102232I2363J0D01*
G02Y101967I-150J-133D01*
G03X40413Y100399I1769J-1567D01*
G01Y95399D01*
G03X42776Y93036I2363J0D01*
G01X47776D01*
G03X50139Y95399I0J2363D01*
G01Y95733D01*
X51043D01*
Y95531D01*
G03X53406Y93169I2363J0D01*
G01X58406D01*
G03X60537Y94512I0J2363D01*
G02X61238Y94550I361J-173D01*
G03X63248Y93430I2010J1243D01*
G01X68248D01*
G03X70192Y94450I0J2363D01*
G02X70836Y94469I329J-227D01*
G03X72697Y93562I1861J1456D01*
G01X73031D01*
Y88867D01*
X79335Y82562D01*
G02X79164Y81895I-283J-283D01*
G03X77460Y79626I659J-2269D01*
G01Y66043D01*
G03X79823Y63680I2363J0D01*
G01X86319D01*
G03X88682Y66043I0J2363D01*
G01Y70669D01*
X110137D01*
Y66043D01*
G03X112500Y63680I2363J0D01*
G01X118996D01*
G03X121359Y66043I0J2363D01*
G01Y79626D01*
G03X118996Y81989I-2363J0D01*
G01X112500D01*
G03X110137Y79626I0J-2363D01*
G01Y75001D01*
X88682D01*
Y79626D01*
G03X86319Y81989I-2363J0D01*
G01X85237D01*
Y82787D01*
X77363Y90661D01*
Y93562D01*
X77697D01*
G03X79903Y95078I0J2363D01*
G01X82932D01*
Y94744D01*
G03X83986Y92777I2363J0D01*
G02X84089Y92211I-222J-333D01*
G03X83810Y91344I1205J-867D01*
G01Y86344D01*
G03X85295Y84859I1485J0D01*
G01X90295D01*
G03X91780Y86344I0J1485D01*
G01Y91344D01*
G03X91501Y92211I-1485J0D01*
G02X91604Y92777I325J233D01*
G03X92658Y94744I-1309J1967D01*
G01Y99744D01*
G03X90295Y102107I-2363J0D01*
G01X85295D01*
G03X82932Y99744I0J-2363D01*
G01Y99410D01*
X80060D01*
Y100925D01*
G03X79465Y102493I-2363J0D01*
G02Y102758I150J133D01*
G03X80060Y104325I-1769J1567D01*
G01Y109325D01*
G03X77697Y111688I-2363J0D01*
G01X77363D01*
Y112773D01*
X77393Y112821D01*
G03X73001I-2196J1352D01*
G01X73031Y112773D01*
Y111688D01*
X72697D01*
G03X70753Y110669I0J-2363D01*
G02X70109Y110649I-329J227D01*
G03X68248Y111556I-1861J-1456D01*
G01X63248D01*
G03X61116Y110212I0J-2363D01*
G02X60415Y110174I-361J173D01*
G03X58406Y111294I-2010J-1243D01*
G01X58135D01*
Y111573D01*
X58189Y111631D01*
G03X58308Y115003I-1889J1755D01*
G03X57831Y115724I-2009J-811D01*
G01X57165Y116390D01*
G02X57306Y116731I141J141D01*
G01X57590D01*
X59118Y118259D01*
G02X59730Y118204I283J-283D01*
G03X61673Y117184I1944J1344D01*
G01X75073D01*
G03X77436Y119547I0J2363D01*
G01Y119783D01*
X78995D01*
Y119547D01*
G03X81358Y117184I2363J0D01*
G01X94758D01*
G03X97121Y119547I0J2363D01*
G01Y124547D01*
G03X94758Y126910I-2363J0D01*
G01X94424D01*
Y133048D01*
X94572Y133088D01*
G03X96320Y135369I-615J2281D01*
G01Y140169D01*
G03X95378Y142058I-2363J0D01*
G02X95266Y142567I240J320D01*
G03X95443Y143269I-1309J703D01*
G01Y148069D01*
G03X93957Y149554I-1485J0D01*
G01X86357D01*
G03X84872Y148069I0J-1485D01*
G01Y143269D01*
G03X85049Y142567I1485J0D01*
G02X84937Y142058I-352J-189D01*
G03X83994Y140169I1421J-1889D01*
G01Y135369D01*
G03X86357Y133006I2363J0D01*
G01X90092D01*
Y126910D01*
X81358D01*
G03X78995Y124547I0J-2363D01*
G01Y124312D01*
X77436D01*
Y124547D01*
G03X75073Y126910I-2363J0D01*
G01X74838D01*
Y131357D01*
X75073D01*
G03X77436Y133720I0J2363D01*
G01Y138720D01*
G03X75073Y141083I-2363J0D01*
G01X74838D01*
Y143583D01*
G03X70309Y143033I-2790J4055D01*
G01Y141083D01*
X61673D01*
G03X59310Y138720I0J-2363D01*
G01Y138387D01*
X44378D01*
X40728Y134736D01*
Y126861D01*
X40394D01*
G03X38031Y124498I0J-2363D01*
G01Y120898D01*
G03X39365Y118770I2363J0D01*
G02X39474Y118128I-174J-360D01*
G01X39222Y117876D01*
X39167Y117863D01*
G03X42272Y114758I596J-2509D01*
G01X42286Y114813D01*
X45060Y117587D01*
Y118535D01*
X45394D01*
G03X45596Y118543I1J2363D01*
G02X46031Y118145I34J-398D01*
G01Y117098D01*
G03X48394Y114735I2363J0D01*
G01X52693D01*
X53737Y113691D01*
X53729Y113599D01*
G03X54176Y111922I2570J-213D01*
G02X53847Y111294I-329J-227D01*
G01X53406D01*
G03X51043Y108931I0J-2363D01*
G01Y103931D01*
G03X51637Y102364I2363J0D01*
G02Y102099I-150J-133D01*
G03X51043Y100531I1769J-1567D01*
G01Y100065D01*
X50139D01*
Y100399D01*
G03X49544Y101967I-2363J0D01*
G02Y102232I150J133D01*
G03X50139Y103799I-1769J1567D01*
G01Y108799D01*
G03X47776Y111162I-2363J0D01*
G01X42776D01*
G03X40491Y109402I0J-2363D01*
G01X40452Y109253D01*
X34917D01*
Y109587D01*
G03X32554Y111950I-2363J0D01*
G01X32059D01*
X30622Y113386D01*
X31971Y114735D01*
X32921D01*
G03X35284Y117098I0J2363D01*
G01Y120698D01*
G03X34506Y122451I-2363J0D01*
G02Y123044I268J297D01*
G03X35284Y124798I-1584J1753D01*
G01Y128398D01*
G03X32921Y130761I-2363J0D01*
G01X32587D01*
Y142517D01*
G02X32783Y142717I200J0D01*
G03X37402Y146259I-106J4921D01*
G01X38312D01*
Y145925D01*
G03X40675Y143562I2363J0D01*
G01X45675D01*
G03X47642Y144616I0J2363D01*
G02X48208Y144719I333J-222D01*
G03X49075Y144440I867J1205D01*
G01X54075D01*
G03X55560Y145925I0J1485D01*
G01Y150925D01*
G03X54075Y152410I-1485J0D01*
G01X49075D01*
G03X48208Y152131I0J-1485D01*
G02X47642Y152234I-233J325D01*
G03X47084Y152822I-1968J-1309D01*
G02X47323Y153543I239J321D01*
G01X153543D01*
Y3937D01*
X3937D01*
G37*
G36*
G01X46031Y128398D02*
Y127250D01*
G02X45596Y126852I-400J0D01*
G03X45394Y126861I-202J-2354D01*
G01X45060D01*
Y132941D01*
X46173Y134054D01*
X59310D01*
Y133720D01*
G03X61673Y131357I2363J0D01*
G01X70309D01*
Y126910D01*
X61673D01*
G03X59310Y124547I0J-2363D01*
G01Y124213D01*
X58945D01*
X56222Y121490D01*
G02X55570Y121617I-283J283D01*
G03X54978Y122451I-2177J-919D01*
G02Y123044I268J297D01*
G03X55698Y124276I-1584J1753D01*
G01X55733Y124431D01*
X56629D01*
X58022Y125824D01*
X58077Y125838D01*
G03X55602Y130113I-596J2509D01*
G02X55033Y130099I-291J274D01*
G03X53394Y130761I-1640J-1701D01*
G01X48394D01*
G03X46031Y128398I0J-2363D01*
G37*
%LPC*%
G75*
G36*
G01X111015Y41634D02*
Y55217D01*
G02X112500Y56702I1485J0D01*
G01X118996D01*
G02X120481Y55217I0J-1485D01*
G01Y41634D01*
G02X118996Y40149I-1485J0D01*
G01X112500D01*
G02X111015Y41634I0J1485D01*
G37*
G36*
G01X78338D02*
Y55217D01*
G02X79823Y56702I1485J0D01*
G01X86319D01*
G02X87804Y55217I0J-1485D01*
G01Y41634D01*
G02X86319Y40149I-1485J0D01*
G01X79823D01*
G02X78338Y41634I0J1485D01*
G37*
G36*
G01X131497Y14764D02*
G02X129134Y12401I-2363J0D01*
G01X124016D01*
G02X121653Y14764I0J2363D01*
G01Y22638D01*
G02X124016Y25001I2363J0D01*
G01X124310D01*
Y26726D01*
X128983Y31398D01*
X142834D01*
X142873Y31548D01*
G02X144123Y26869I4765J-1234D01*
G01X130859D01*
X129577Y25587D01*
G03X129754Y24918I283J-283D01*
G02X131497Y22638I-620J-2280D01*
G01Y14764D01*
G37*
G36*
G01X33110Y7184D02*
G02Y11713I-4370J2265D01*
G01X34113D01*
Y11949D01*
G02X36476Y14312I2363J0D01*
G01X36751D01*
X40452Y18013D01*
X58025D01*
X61726Y14312D01*
X71004D01*
G02X73367Y11949I0J-2363D01*
G01Y11713D01*
X74764D01*
G02X76334Y13497I4370J-2265D01*
G03X76389Y14109I-228J329D01*
G01X73707Y16791D01*
G03X73074Y16701I-283J-283D01*
G02X71004Y15477I-2070J1139D01*
G01X66004D01*
G02X63641Y17840I0J2363D01*
G01Y22840D01*
G02X64235Y24407I2363J0D01*
G03Y24673I-150J133D01*
G02X63641Y26240I1769J1567D01*
G01Y31240D01*
G02X66004Y33603I2363J0D01*
G01X71004D01*
G02X71395Y33570I-1J-2363D01*
G03X71744Y34248I66J395D01*
G01X71544Y34448D01*
X61133D01*
X59646Y32961D01*
Y23906D01*
X57196Y21456D01*
X55389D01*
Y21122D01*
G02X53026Y18759I-2363J0D01*
G01X39626D01*
G02X37889Y19520I0J2363D01*
G03X37312Y19532I-294J-271D01*
G01X37267Y19487D01*
X13869D01*
G02Y23820I-4420J2166D01*
G01X16033D01*
G03X16428Y24284I0J400D01*
G02X16397Y24665I2332J382D01*
G01Y29665D01*
G02X17622Y31736I2363J0D01*
G03Y32437I-193J350D01*
G02X16554Y33661I1138J2071D01*
G01X14262D01*
G02Y37993I-4420J2166D01*
G01X16397D01*
Y39508D01*
G02X18760Y41871I2363J0D01*
G01X32160D01*
G02X34502Y39817I0J-2363D01*
G01X34526Y39643D01*
X34901D01*
Y40295D01*
G02X35495Y41863I2363J0D01*
G03Y42128I-150J133D01*
G02X34901Y43695I1769J1567D01*
G01Y43926D01*
X34201Y44625D01*
G02X32554Y43956I-1648J1693D01*
G01X19154D01*
G02X16791Y46319I0J2363D01*
G01Y46653D01*
X13869D01*
G02Y50985I-4420J2166D01*
G01X16791D01*
Y51319D01*
G02X19154Y53682I2363J0D01*
G01X32554D01*
G02X34917Y51319I0J-2363D01*
G01Y50037D01*
X35126Y49827D01*
X35282Y49982D01*
X35293Y49999D01*
G02X37264Y51058I1970J-1304D01*
G01X37598D01*
Y53405D01*
X37264D01*
G02X34901Y55768I0J2363D01*
G01Y56102D01*
X32961D01*
X28237Y60826D01*
X14262D01*
G02Y65158I-4420J2166D01*
G01X28450D01*
G03X28733Y65841I0J400D01*
G01X28199Y66376D01*
X28144Y66389D01*
G02X31249Y69494I596J2509D01*
G01X31262Y69439D01*
X31867Y68834D01*
X34901D01*
Y69168D01*
G02X37264Y71531I2363J0D01*
G01X42264D01*
G02X44627Y69168I0J-2363D01*
G01Y64168D01*
G02X44032Y62600I-2363J0D01*
G03Y62335I150J-133D01*
G02X44627Y60768I-1769J-1567D01*
G01Y55768D01*
G02X42264Y53405I-2363J0D01*
G01X41930D01*
Y51058D01*
X42264D01*
G02X44627Y48695I0J-2363D01*
G01Y48361D01*
X45531D01*
Y48695D01*
G02X47894Y51058I2363J0D01*
G01X52894D01*
G02X55257Y48695I0J-2363D01*
G01Y48229D01*
X56409D01*
X59406Y45233D01*
G02X59646Y42456I-1532J-1532D01*
G01Y38780D01*
X73338D01*
X78456Y33662D01*
X87263D01*
Y33996D01*
G02X89626Y36359I2363J0D01*
G01X94626D01*
G02X96989Y33996I0J-2363D01*
G01Y28996D01*
G02X96394Y27429I-2363J0D01*
G03Y27163I150J-133D01*
G02X96989Y25596I-1769J-1567D01*
G01Y25394D01*
X99409D01*
Y25787D01*
G02X101772Y28150I2363J0D01*
G01X106890D01*
G02X109253Y25787I0J-2363D01*
G01Y20669D01*
G02X107920Y18543I-2363J0D01*
G03X107839Y17875I174J-360D01*
G02X108375Y16732I-949J-1143D01*
G01Y11614D01*
G02X106890Y10129I-1485J0D01*
G01X101772D01*
G02X100287Y11614I0J1485D01*
G01Y16732D01*
G02X100823Y17875I1485J0D01*
G03X100742Y18543I-255J308D01*
G02X99409Y20669I1030J2127D01*
G01Y21062D01*
X96989D01*
Y20596D01*
G02X94626Y18233I-2363J0D01*
G01X89626D01*
G02X87263Y20596I0J2363D01*
G01Y25596D01*
G02X87857Y27163I2363J0D01*
G03Y27429I-150J133D01*
G02X87263Y28996I1769J1567D01*
G01Y29330D01*
X76662D01*
X74012Y31980D01*
G03X73334Y31631I-283J-283D01*
G02X73367Y31240I-2330J-392D01*
G01Y31005D01*
X74167D01*
X76280Y28891D01*
Y26922D01*
X89061Y14141D01*
X89175Y14174D01*
G02X85826Y10825I1376J-4726D01*
G01X85859Y10939D01*
X82081Y14716D01*
G03X81398Y14433I-283J-283D01*
G01Y13819D01*
G02X74764Y7184I-2265J-4370D01*
G01X73367D01*
Y6949D01*
G02X71004Y4586I-2363J0D01*
G01X57604D01*
G02X55241Y6949I0J2363D01*
G01Y11949D01*
G02X55449Y12919I2363J0D01*
G03X55085Y13483I-365J164D01*
G01X51381D01*
G03X51062Y12843I0J-400D01*
G02X51361Y11949I-1186J-894D01*
G01Y6949D01*
G02X49876Y5464I-1485J0D01*
G01X44876D01*
G02X44010Y5743I0J1485D01*
G03X43444Y5640I-233J-325D01*
G02X41476Y4586I-1967J1309D01*
G01X36476D01*
G02X34113Y6949I0J2363D01*
G01Y7184D01*
X33110D01*
G37*
G54D22*
X137795Y19685D03*
G54D21*
X9449Y9449D03*
X147244Y51969D03*
X147638Y72047D03*
%LPD*%
G75*
G36*
G01X34887Y23820D02*
G02X34492Y24284I0J400D01*
G03X34523Y24665I-2332J382D01*
G01Y29665D01*
G03X33298Y31736I-2363J0D01*
G02Y32437I193J350D01*
G03X34523Y34508I-1138J2071D01*
G01Y34842D01*
X34940D01*
X34979Y34693D01*
G03X37264Y32932I2285J603D01*
G01X42264D01*
G03X44627Y35295I0J2363D01*
G01Y35629D01*
X45531D01*
Y35295D01*
G03X47894Y32932I2363J0D01*
G01X52894D01*
G03X54622Y33683I0J2363D01*
G02X55314Y33411I293J-273D01*
G01Y28139D01*
G02X54641Y27847I-400J0D01*
G03X53026Y28485I-1615J-1726D01*
G01X39626D01*
G03X37263Y26122I0J-2363D01*
G01Y25610D01*
X35473Y23820D01*
X34887D01*
G37*
G36*
G01X34255Y60935D02*
X31370Y63819D01*
G02X31654Y64502I283J283D01*
G01X34901D01*
Y64168D01*
G03X35495Y62600I2363J0D01*
G02Y62335I-150J-133D01*
G03X34932Y61152I1769J-1567D01*
G02X34255Y60935I-395J65D01*
G37*
G54D10*
X9449Y9449D03*
Y21654D03*
Y48819D03*
X9843Y35827D03*
Y62992D03*
Y77953D03*
Y107087D03*
Y120866D03*
Y93701D03*
Y134252D03*
X28740Y9449D03*
X32677Y147638D03*
X79134Y9449D03*
X72047Y147638D03*
X90551Y9449D03*
X147638Y30315D03*
X147244Y51969D03*
X147638Y72047D03*
G54D20*
G01X9449Y5205D02*
Y9449D01*
G01D02*
Y13693D01*
G01X5205Y9449D02*
X9449D01*
G01D02*
X13693D01*
G01X9843Y77953D02*
Y93701D01*
G01Y77953D02*
X14302D01*
X14435Y77820D01*
X20866D01*
G01X47376Y5264D02*
Y9449D01*
G01D02*
X51561D01*
G01X28740D02*
X38976D01*
G01X60104D02*
X59449Y10104D01*
Y13386D01*
X57087Y15748D01*
X41390D01*
X38976Y13335D01*
Y9449D01*
G01X48819Y73768D02*
Y77953D01*
G01X44634D02*
X48819D01*
G01D02*
X53004D01*
G01X39370Y73768D02*
Y77953D01*
G01X35185D02*
X39370D01*
G01D02*
X43555D01*
G01X29921Y73768D02*
Y77953D01*
G01D02*
X34106D01*
G01X90551Y9449D02*
X74016Y25984D01*
Y27953D01*
X73228Y28740D01*
X68504D01*
G01X79134Y9449D02*
Y14567D01*
X73361Y20340D01*
X68504D01*
G01Y9449D02*
X79134D01*
G01X78138Y48425D02*
X83071D01*
G01X51575Y144240D02*
Y148425D01*
G01D02*
Y152610D01*
G01Y148425D02*
X55760D01*
G01X72573Y122047D02*
X83858D01*
G01X72573Y136220D02*
Y147112D01*
X72047Y147638D01*
G01X72573Y122047D02*
Y136220D01*
G01X104331Y9929D02*
Y14173D01*
G01X100087D02*
X104331D01*
G01D02*
X108575D01*
G01X110815Y48425D02*
X115748D01*
G01X83071Y39948D02*
Y48425D01*
G01D02*
Y56902D01*
G01Y48425D02*
X88004D01*
G01X87795Y84659D02*
Y88844D01*
G01X83610D02*
X87795D01*
G01D02*
X91980D01*
G01X90157Y145669D02*
Y149754D01*
G01X84672Y145669D02*
X90157D01*
G01D02*
X95643D01*
G01X147638Y30315D02*
X146457Y29134D01*
X129921D01*
X126575Y25787D01*
Y18701D01*
G01X115748Y39948D02*
Y48425D01*
G01D02*
Y56902D01*
G01Y48425D02*
X120681D01*
G01X147244Y47724D02*
Y51969D01*
G01D02*
Y56213D01*
G01X143000Y51969D02*
X147244D01*
G01D02*
X151488D01*
G01X147638Y67803D02*
Y72047D01*
G01D02*
Y76291D01*
G01X143394Y72047D02*
X147638D01*
G01D02*
X151882D01*
G54D11*
X21260Y27165D03*
Y37008D03*
X21654Y48819D03*
X20866Y86220D03*
Y77820D03*
X21654Y107087D03*
X42126Y23622D03*
X50526D03*
X29660Y27165D03*
X38976Y9449D03*
X47376D03*
X39764Y58268D03*
X29660Y37008D03*
X50394Y37795D03*
Y46195D03*
X30054Y48819D03*
X39764Y37795D03*
Y46195D03*
Y66668D03*
X29921Y77953D03*
Y86353D03*
X39370Y77953D03*
Y86353D03*
X48819Y77953D03*
Y86353D03*
X30054Y107087D03*
X45276Y106299D03*
Y97899D03*
X51575Y148425D03*
X43175D03*
X68504Y28740D03*
Y20340D03*
Y9449D03*
X60104D03*
X65748Y106693D03*
Y98293D03*
X75197Y98425D03*
Y106825D03*
X64173Y122047D03*
X72573D03*
X55906Y98031D03*
Y106431D03*
X64173Y136220D03*
X72573D03*
X92126Y31496D03*
Y23096D03*
X87795Y88844D03*
Y97244D03*
X83858Y122047D03*
X92258D03*
G54D12*
X22421Y122698D03*
X30421Y118898D03*
X50894D03*
X30421Y126598D03*
X50894D03*
X42894Y122698D03*
G54D13*
X19685Y137795D03*
X137795Y19685D03*
G54D14*
X28740Y68898D03*
X39764Y115354D03*
X22441Y131102D03*
X75197Y114173D03*
X56299Y113386D03*
X57480Y128346D03*
G54D15*
X83071Y48425D03*
Y72835D03*
X115748Y48425D03*
Y72835D03*
G54D16*
X104331Y23228D03*
Y14173D03*
G54D17*
X90157Y145669D03*
Y137769D03*
G54D18*
X126575Y18701D03*
G54D19*
G01X9449Y21654D02*
X36370D01*
X38339Y23622D01*
X42126D01*
G01X21654Y48819D02*
X9449D01*
G01X9843Y35827D02*
X20079D01*
X21260Y37008D01*
G01X39764Y58268D02*
X33858D01*
X29134Y62992D01*
X9843D01*
G01X27559Y113386D02*
X17323D01*
X9843Y120866D01*
G01X20866Y86220D02*
Y106299D01*
X21654Y107087D01*
G01X9843D02*
X21654D01*
G01X9843Y134252D02*
Y131489D01*
X18634Y122698D01*
X22421D01*
G01X57480Y33858D02*
Y24803D01*
X56299Y23622D01*
X50526D01*
G01X29660Y27165D02*
Y37008D01*
G01X21260Y27165D02*
Y37008D01*
G01X50394Y46195D02*
X50526Y46063D01*
X55512D01*
X57480Y44094D01*
G01X39764Y46195D02*
X50394D01*
G01X30054Y48819D02*
X30841Y48031D01*
X33858D01*
X35694Y46195D01*
X39764D01*
G01X40157Y46589D02*
X39764Y46195D01*
G01D02*
Y58268D01*
G01X29660Y37008D02*
X38976D01*
X39764Y37795D01*
G01D02*
X50394D01*
G01X28740Y68898D02*
X30970Y66668D01*
X39764D01*
G01X20866Y86220D02*
X29789D01*
X29921Y86353D01*
G01D02*
X39370D01*
G01D02*
X48819D01*
G01X30421Y118898D02*
X29921Y118398D01*
Y115748D01*
X27559Y113386D01*
G01X30054Y107087D02*
Y110891D01*
X27559Y113386D01*
G01X30054Y107087D02*
X44488D01*
X45276Y106299D01*
G01X42894Y122698D02*
Y118484D01*
X39764Y115354D01*
G01X45276Y97899D02*
X55773D01*
X55906Y98031D01*
G01X64173Y136220D02*
X45276D01*
X42894Y133839D01*
Y122698D01*
G01X22441Y131102D02*
Y125805D01*
X22421Y125785D01*
Y122698D01*
G01X30421Y126598D02*
Y145382D01*
X32677Y147638D01*
G01X43175Y148425D02*
X33465D01*
X32677Y147638D01*
G01X57480Y44094D02*
Y33858D01*
G01X57874Y43701D02*
X57480Y44094D01*
G01Y33858D02*
X60236Y36614D01*
X72441D01*
X77559Y31496D01*
X92126D01*
G01X75197Y98425D02*
Y89764D01*
X83071Y81890D01*
Y72835D01*
G01X65748Y98293D02*
X75065D01*
X75197Y98425D01*
G01X87795Y97244D02*
X76378D01*
X75197Y98425D01*
G01Y114173D02*
Y106825D01*
G01X64173Y122047D02*
X59843D01*
X56693Y118898D01*
X51594D01*
G01D02*
X56299Y114192D01*
Y113386D01*
G01X50894Y118898D02*
X51594D01*
G01X55906Y106431D02*
X65487D01*
X65748Y106693D01*
G01X50894Y126598D02*
X55731D01*
X57480Y128346D01*
G01X104331Y23228D02*
X92258D01*
X92126Y23096D01*
G01X83071Y72835D02*
X115748D01*
G01X92258Y122047D02*
Y135669D01*
X90157Y137769D01*
M02*
